G04 #@! TF.FileFunction,Soldermask,Top*
%FSLAX46Y46*%
G04 Gerber Fmt 4.6, Leading zero omitted, Abs format (unit mm)*
G04 Created by KiCad (PCBNEW 4.0.2-stable) date 2019-11-04 2:31:50 PM*
%MOMM*%
G01*
G04 APERTURE LIST*
%ADD10C,0.200000*%
%ADD11R,2.995600X5.510200*%
%ADD12R,1.100000X3.100000*%
%ADD13R,2.690800X7.389800*%
%ADD14C,3.200000*%
%ADD15R,2.500000X2.500000*%
%ADD16C,2.500000*%
%ADD17R,1.100000X1.700000*%
%ADD18R,1.700000X1.100000*%
%ADD19R,2.497760X2.497760*%
%ADD20R,1.700000X2.900000*%
%ADD21O,2.100000X1.600000*%
%ADD22R,2.100000X1.600000*%
%ADD23R,1.300000X4.000000*%
%ADD24R,4.000000X1.300000*%
%ADD25R,4.100000X2.100000*%
%ADD26R,5.100000X2.100000*%
%ADD27R,2.100000X4.100000*%
%ADD28R,1.800000X2.600000*%
%ADD29O,1.800000X2.600000*%
%ADD30R,0.850000X0.900000*%
%ADD31R,1.350000X1.100000*%
%ADD32C,1.624000*%
%ADD33C,2.100000*%
%ADD34R,1.900000X2.600000*%
%ADD35O,1.900000X2.600000*%
%ADD36R,1.900000X2.500000*%
%ADD37O,1.900000X2.500000*%
G04 APERTURE END LIST*
D10*
D11*
X52601400Y-93500000D03*
X42898600Y-93500000D03*
D12*
X41000000Y-93500000D03*
X54500000Y-93500000D03*
D13*
X42650500Y-107250000D03*
X47349500Y-107250000D03*
D12*
X49000000Y-107250000D03*
X41000000Y-107250000D03*
D14*
X84000000Y-80960000D03*
X84000000Y-112000000D03*
D15*
X31750000Y-79500000D03*
D16*
X36750000Y-79500000D03*
D14*
X149500000Y-112000000D03*
X149500000Y-80960000D03*
X232410000Y-80960000D03*
X232410000Y-112000000D03*
D17*
X43750000Y-101750000D03*
X46750000Y-101750000D03*
X57150000Y-114900000D03*
X60150000Y-114900000D03*
X58000000Y-94750000D03*
X61000000Y-94750000D03*
D18*
X63250000Y-92750000D03*
X63250000Y-89750000D03*
X69000000Y-98750000D03*
X69000000Y-101750000D03*
X84000000Y-91750000D03*
X84000000Y-88750000D03*
D17*
X64300000Y-114900000D03*
X67300000Y-114900000D03*
D18*
X69000000Y-96250000D03*
X69000000Y-93250000D03*
X66750000Y-92750000D03*
X66750000Y-89750000D03*
X69500000Y-108250000D03*
X69500000Y-111250000D03*
D19*
X57199640Y-84250000D03*
X52800360Y-84250000D03*
D20*
X71500000Y-114250000D03*
D21*
X192520000Y-105890000D03*
X189480000Y-105890000D03*
X189480000Y-103350000D03*
X192520000Y-103350000D03*
X192520000Y-100810000D03*
X189480000Y-100810000D03*
X189480000Y-98270000D03*
X192520000Y-98270000D03*
X192520000Y-95730000D03*
X189480000Y-95730000D03*
D22*
X189480000Y-88110000D03*
D21*
X192520000Y-88110000D03*
X189480000Y-90650000D03*
X192520000Y-90650000D03*
X189480000Y-93190000D03*
X192520000Y-93190000D03*
X176520000Y-105890000D03*
X173480000Y-105890000D03*
X173480000Y-103350000D03*
X176520000Y-103350000D03*
X176520000Y-100810000D03*
X173480000Y-100810000D03*
X173480000Y-98270000D03*
X176520000Y-98270000D03*
X176520000Y-95730000D03*
X173480000Y-95730000D03*
D22*
X173480000Y-88110000D03*
D21*
X176520000Y-88110000D03*
X173480000Y-90650000D03*
X176520000Y-90650000D03*
X173480000Y-93190000D03*
X176520000Y-93190000D03*
X159520000Y-105890000D03*
X156480000Y-105890000D03*
X156480000Y-103350000D03*
X159520000Y-103350000D03*
X159520000Y-100810000D03*
X156480000Y-100810000D03*
X156480000Y-98270000D03*
X159520000Y-98270000D03*
X159520000Y-95730000D03*
X156480000Y-95730000D03*
D22*
X156480000Y-88110000D03*
D21*
X159520000Y-88110000D03*
X156480000Y-90650000D03*
X159520000Y-90650000D03*
X156480000Y-93190000D03*
X159520000Y-93190000D03*
X142520000Y-105890000D03*
X139480000Y-105890000D03*
X139480000Y-103350000D03*
X142520000Y-103350000D03*
X142520000Y-100810000D03*
X139480000Y-100810000D03*
X139480000Y-98270000D03*
X142520000Y-98270000D03*
X142520000Y-95730000D03*
X139480000Y-95730000D03*
D22*
X139480000Y-88110000D03*
D21*
X142520000Y-88110000D03*
X139480000Y-90650000D03*
X142520000Y-90650000D03*
X139480000Y-93190000D03*
X142520000Y-93190000D03*
X125520000Y-105890000D03*
X122480000Y-105890000D03*
X122480000Y-103350000D03*
X125520000Y-103350000D03*
X125520000Y-100810000D03*
X122480000Y-100810000D03*
X122480000Y-98270000D03*
X125520000Y-98270000D03*
X125520000Y-95730000D03*
X122480000Y-95730000D03*
D22*
X122480000Y-88110000D03*
D21*
X125520000Y-88110000D03*
X122480000Y-90650000D03*
X125520000Y-90650000D03*
X122480000Y-93190000D03*
X125520000Y-93190000D03*
X109520000Y-105890000D03*
X106480000Y-105890000D03*
X106480000Y-103350000D03*
X109520000Y-103350000D03*
X109520000Y-100810000D03*
X106480000Y-100810000D03*
X106480000Y-98270000D03*
X109520000Y-98270000D03*
X109520000Y-95730000D03*
X106480000Y-95730000D03*
D22*
X106480000Y-88110000D03*
D21*
X109520000Y-88110000D03*
X106480000Y-90650000D03*
X109520000Y-90650000D03*
X106480000Y-93190000D03*
X109520000Y-93190000D03*
X93520000Y-105890000D03*
X90480000Y-105890000D03*
X90480000Y-103350000D03*
X93520000Y-103350000D03*
X93520000Y-100810000D03*
X90480000Y-100810000D03*
X90480000Y-98270000D03*
X93520000Y-98270000D03*
X93520000Y-95730000D03*
X90480000Y-95730000D03*
D22*
X90480000Y-88110000D03*
D21*
X93520000Y-88110000D03*
X90480000Y-90650000D03*
X93520000Y-90650000D03*
X90480000Y-93190000D03*
X93520000Y-93190000D03*
D23*
X52100000Y-113750000D03*
X54900000Y-113750000D03*
D24*
X59500000Y-92650000D03*
X59500000Y-89850000D03*
D25*
X46500000Y-78250000D03*
D26*
X46500000Y-84900000D03*
D27*
X41700000Y-81500000D03*
D28*
X53500000Y-79750000D03*
D29*
X56040000Y-79750000D03*
D21*
X77520000Y-105890000D03*
X74480000Y-105890000D03*
X74480000Y-103350000D03*
X77520000Y-103350000D03*
X77520000Y-100810000D03*
X74480000Y-100810000D03*
X74480000Y-98270000D03*
X77520000Y-98270000D03*
X77520000Y-95730000D03*
X74480000Y-95730000D03*
D22*
X74480000Y-88110000D03*
D21*
X77520000Y-88110000D03*
X74480000Y-90650000D03*
X77520000Y-90650000D03*
X74480000Y-93190000D03*
X77520000Y-93190000D03*
X208520000Y-105890000D03*
X205480000Y-105890000D03*
X205480000Y-103350000D03*
X208520000Y-103350000D03*
X208520000Y-100810000D03*
X205480000Y-100810000D03*
X205480000Y-98270000D03*
X208520000Y-98270000D03*
X208520000Y-95730000D03*
X205480000Y-95730000D03*
D22*
X205480000Y-88110000D03*
D21*
X208520000Y-88110000D03*
X205480000Y-90650000D03*
X208520000Y-90650000D03*
X205480000Y-93190000D03*
X208520000Y-93190000D03*
D30*
X114000000Y-88650000D03*
X114000000Y-90150000D03*
D31*
X115800000Y-90500000D03*
X115800000Y-88500000D03*
D18*
X117900000Y-91000000D03*
X117900000Y-88000000D03*
D30*
X180700000Y-88650000D03*
X180700000Y-90150000D03*
D31*
X182600000Y-90300000D03*
X182600000Y-88300000D03*
D18*
X184800000Y-90900000D03*
X184800000Y-87900000D03*
D30*
X114000000Y-96050000D03*
X114000000Y-97550000D03*
D31*
X115800000Y-97900000D03*
X115800000Y-95900000D03*
D18*
X117900000Y-98400000D03*
X117900000Y-95400000D03*
D30*
X180700000Y-96050000D03*
X180700000Y-97550000D03*
D31*
X182600000Y-97800000D03*
X182600000Y-95800000D03*
D18*
X184800000Y-98250000D03*
X184800000Y-95250000D03*
D32*
X224800000Y-101000000D03*
D33*
X221670000Y-97870000D03*
X221670000Y-104130000D03*
X227930000Y-104130000D03*
X227930000Y-97870000D03*
D32*
X224800000Y-88000000D03*
D33*
X221670000Y-84870000D03*
X221670000Y-91130000D03*
X227930000Y-91130000D03*
X227930000Y-84870000D03*
D17*
X42000000Y-112750000D03*
X45000000Y-112750000D03*
D34*
X62000000Y-80250000D03*
D35*
X64540000Y-80250000D03*
X67080000Y-80250000D03*
D34*
X58250000Y-97750000D03*
D35*
X60790000Y-97750000D03*
X63330000Y-97750000D03*
D36*
X59210000Y-111980000D03*
D37*
X61750000Y-111980000D03*
X64290000Y-112030000D03*
M02*
