M48
;DRILL file {KiCad 4.0.2-stable} date 2019-11-04 2:31:52 PM
;FORMAT={2:4/ absolute / inch / suppress leading zeros}
FMAT,2
INCH,TZ
T1C0.020
T2C0.031
T3C0.039
T4C0.040
T5C0.043
T6C0.047
T7C0.047
T8C0.050
T9C0.122
%
G90
G05
M72
T1
X11319Y-31496
X11319Y-33465
X11319Y-35433
X11319Y-37402
X11319Y-39370
X11319Y-41339
X11319Y-43307
X11319Y-45276
X18307Y-44390
X18819Y-44173
X18976Y-40039
X19409Y-40039
X19843Y-40039
X20276Y-40039
X23622Y-30709
X24882Y-37205
X25591Y-37205
X26299Y-37205
X27165Y-36142
X27165Y-40630
X27165Y-41063
X27165Y-41496
X27559Y-30709
X29528Y-30709
X29528Y-45571
X31496Y-30709
X31496Y-45571
X32638Y-36693
X33071Y-36693
X33543Y-36693
X35433Y-30709
X35433Y-45571
X37402Y-30709
X37402Y-45571
X39370Y-30709
X39370Y-45571
X41339Y-30709
X41339Y-45571
X43307Y-30709
X43307Y-45571
X45276Y-30709
X45276Y-45571
X47244Y-30709
X47244Y-45571
X49213Y-30709
X49213Y-45571
X51181Y-30709
X51181Y-45571
X53150Y-30709
X53150Y-45571
X55118Y-30709
X55118Y-45571
X57087Y-30709
X57087Y-45571
X61024Y-30709
X61024Y-45571
X62992Y-30709
X62992Y-45571
X64961Y-30709
X64961Y-45571
X66929Y-30709
X66929Y-45571
X68898Y-30709
X68898Y-45571
X70866Y-30709
X70866Y-45571
X72835Y-30709
X72835Y-45571
X74803Y-30709
X74803Y-45571
X76772Y-30709
X76772Y-45571
X78740Y-30709
X78740Y-45571
X80709Y-30709
X80709Y-45571
X82677Y-30709
X82677Y-45571
X84646Y-30709
X84646Y-45571
X86614Y-30709
X86614Y-45571
X88583Y-30709
X88583Y-45571
X92913Y-30709
X92913Y-34252
X92913Y-36220
X92913Y-38189
X92913Y-40157
X92913Y-42126
X92913Y-45571
T3
X29421Y-34689
X29421Y-35689
X29421Y-36689
X29421Y-37689
X29421Y-38689
X29421Y-39689
X29421Y-40689
X29421Y-41689
X30421Y-34689
X30421Y-35689
X30421Y-36689
X30421Y-37689
X30421Y-38689
X30421Y-39689
X30421Y-40689
X30421Y-41689
X35720Y-34689
X35720Y-35689
X35720Y-36689
X35720Y-37689
X35720Y-38689
X35720Y-39689
X35720Y-40689
X35720Y-41689
X36720Y-34689
X36720Y-35689
X36720Y-36689
X36720Y-37689
X36720Y-38689
X36720Y-39689
X36720Y-40689
X36720Y-41689
X42020Y-34689
X42020Y-35689
X42020Y-36689
X42020Y-37689
X42020Y-38689
X42020Y-39689
X42020Y-40689
X42020Y-41689
X43020Y-34689
X43020Y-35689
X43020Y-36689
X43020Y-37689
X43020Y-38689
X43020Y-39689
X43020Y-40689
X43020Y-41689
X48319Y-34689
X48319Y-35689
X48319Y-36689
X48319Y-37689
X48319Y-38689
X48319Y-39689
X48319Y-40689
X48319Y-41689
X49319Y-34689
X49319Y-35689
X49319Y-36689
X49319Y-37689
X49319Y-38689
X49319Y-39689
X49319Y-40689
X49319Y-41689
X55012Y-34689
X55012Y-35689
X55012Y-36689
X55012Y-37689
X55012Y-38689
X55012Y-39689
X55012Y-40689
X55012Y-41689
X56012Y-34689
X56012Y-35689
X56012Y-36689
X56012Y-37689
X56012Y-38689
X56012Y-39689
X56012Y-40689
X56012Y-41689
X61705Y-34689
X61705Y-35689
X61705Y-36689
X61705Y-37689
X61705Y-38689
X61705Y-39689
X61705Y-40689
X61705Y-41689
X62705Y-34689
X62705Y-35689
X62705Y-36689
X62705Y-37689
X62705Y-38689
X62705Y-39689
X62705Y-40689
X62705Y-41689
X68398Y-34689
X68398Y-35689
X68398Y-36689
X68398Y-37689
X68398Y-38689
X68398Y-39689
X68398Y-40689
X68398Y-41689
X69398Y-34689
X69398Y-35689
X69398Y-36689
X69398Y-37689
X69398Y-38689
X69398Y-39689
X69398Y-40689
X69398Y-41689
X74697Y-34689
X74697Y-35689
X74697Y-36689
X74697Y-37689
X74697Y-38689
X74697Y-39689
X74697Y-40689
X74697Y-41689
X75697Y-34689
X75697Y-35689
X75697Y-36689
X75697Y-37689
X75697Y-38689
X75697Y-39689
X75697Y-40689
X75697Y-41689
X80996Y-34689
X80996Y-35689
X80996Y-36689
X80996Y-37689
X80996Y-38689
X80996Y-39689
X80996Y-40689
X80996Y-41689
X81996Y-34689
X81996Y-35689
X81996Y-36689
X81996Y-37689
X81996Y-38689
X81996Y-39689
X81996Y-40689
X81996Y-41689
T4
X88504Y-34646
X88504Y-39764
T6
X28150Y-44980
T7
X12500Y-31299
X14469Y-31299
X21063Y-31398
X22063Y-31398
X22933Y-38484
X23311Y-44224
X23933Y-38484
X24311Y-44224
X24409Y-31594
X24933Y-38484
X25311Y-44224
X25409Y-31594
X26409Y-31594
T8
X87272Y-33413
X87272Y-35878
X87272Y-38531
X87272Y-40996
X89736Y-33413
X89736Y-35878
X89736Y-38531
X89736Y-40996
T9
X33071Y-31874
X33071Y-44094
X58858Y-31874
X58858Y-44094
X91500Y-31874
X91500Y-44094
T2
X16417Y-32539G85X16417Y-31634
G05
X18760Y-30807G85X17854Y-30807
G05
T5
X18799Y-33425G85X17815Y-33425
G05
T0
M30
