G04 #@! TF.FileFunction,Soldermask,Bot*
%FSLAX46Y46*%
G04 Gerber Fmt 4.6, Leading zero omitted, Abs format (unit mm)*
G04 Created by KiCad (PCBNEW 4.0.2-stable) date 2019-11-02 5:24:16 PM*
%MOMM*%
G01*
G04 APERTURE LIST*
%ADD10C,0.200000*%
%ADD11C,3.200000*%
%ADD12R,2.500000X2.500000*%
%ADD13C,2.500000*%
%ADD14R,1.700000X2.900000*%
%ADD15O,2.100000X1.600000*%
%ADD16R,2.100000X1.600000*%
%ADD17R,4.100000X2.100000*%
%ADD18R,5.100000X2.100000*%
%ADD19R,2.100000X4.100000*%
%ADD20R,1.800000X2.600000*%
%ADD21O,1.800000X2.600000*%
%ADD22C,1.624000*%
%ADD23C,1.878000*%
%ADD24R,1.900000X2.600000*%
%ADD25O,1.900000X2.600000*%
%ADD26R,1.900000X2.500000*%
%ADD27O,1.900000X2.500000*%
G04 APERTURE END LIST*
D10*
D11*
X84000000Y-80960000D03*
X84000000Y-112000000D03*
D12*
X31750000Y-79500000D03*
D13*
X36750000Y-79500000D03*
D11*
X149500000Y-112300000D03*
X149500000Y-80960000D03*
X232410000Y-80960000D03*
X232410000Y-112000000D03*
D14*
X71500000Y-114250000D03*
D15*
X192520000Y-105890000D03*
X189480000Y-105890000D03*
X189480000Y-103350000D03*
X192520000Y-103350000D03*
X192520000Y-100810000D03*
X189480000Y-100810000D03*
X189480000Y-98270000D03*
X192520000Y-98270000D03*
X192520000Y-95730000D03*
X189480000Y-95730000D03*
D16*
X189480000Y-88110000D03*
D15*
X192520000Y-88110000D03*
X189480000Y-90650000D03*
X192520000Y-90650000D03*
X189480000Y-93190000D03*
X192520000Y-93190000D03*
X176520000Y-105890000D03*
X173480000Y-105890000D03*
X173480000Y-103350000D03*
X176520000Y-103350000D03*
X176520000Y-100810000D03*
X173480000Y-100810000D03*
X173480000Y-98270000D03*
X176520000Y-98270000D03*
X176520000Y-95730000D03*
X173480000Y-95730000D03*
D16*
X173480000Y-88110000D03*
D15*
X176520000Y-88110000D03*
X173480000Y-90650000D03*
X176520000Y-90650000D03*
X173480000Y-93190000D03*
X176520000Y-93190000D03*
X159520000Y-105890000D03*
X156480000Y-105890000D03*
X156480000Y-103350000D03*
X159520000Y-103350000D03*
X159520000Y-100810000D03*
X156480000Y-100810000D03*
X156480000Y-98270000D03*
X159520000Y-98270000D03*
X159520000Y-95730000D03*
X156480000Y-95730000D03*
D16*
X156480000Y-88110000D03*
D15*
X159520000Y-88110000D03*
X156480000Y-90650000D03*
X159520000Y-90650000D03*
X156480000Y-93190000D03*
X159520000Y-93190000D03*
X142520000Y-105890000D03*
X139480000Y-105890000D03*
X139480000Y-103350000D03*
X142520000Y-103350000D03*
X142520000Y-100810000D03*
X139480000Y-100810000D03*
X139480000Y-98270000D03*
X142520000Y-98270000D03*
X142520000Y-95730000D03*
X139480000Y-95730000D03*
D16*
X139480000Y-88110000D03*
D15*
X142520000Y-88110000D03*
X139480000Y-90650000D03*
X142520000Y-90650000D03*
X139480000Y-93190000D03*
X142520000Y-93190000D03*
X125520000Y-105890000D03*
X122480000Y-105890000D03*
X122480000Y-103350000D03*
X125520000Y-103350000D03*
X125520000Y-100810000D03*
X122480000Y-100810000D03*
X122480000Y-98270000D03*
X125520000Y-98270000D03*
X125520000Y-95730000D03*
X122480000Y-95730000D03*
D16*
X122480000Y-88110000D03*
D15*
X125520000Y-88110000D03*
X122480000Y-90650000D03*
X125520000Y-90650000D03*
X122480000Y-93190000D03*
X125520000Y-93190000D03*
X109520000Y-105890000D03*
X106480000Y-105890000D03*
X106480000Y-103350000D03*
X109520000Y-103350000D03*
X109520000Y-100810000D03*
X106480000Y-100810000D03*
X106480000Y-98270000D03*
X109520000Y-98270000D03*
X109520000Y-95730000D03*
X106480000Y-95730000D03*
D16*
X106480000Y-88110000D03*
D15*
X109520000Y-88110000D03*
X106480000Y-90650000D03*
X109520000Y-90650000D03*
X106480000Y-93190000D03*
X109520000Y-93190000D03*
X93520000Y-105890000D03*
X90480000Y-105890000D03*
X90480000Y-103350000D03*
X93520000Y-103350000D03*
X93520000Y-100810000D03*
X90480000Y-100810000D03*
X90480000Y-98270000D03*
X93520000Y-98270000D03*
X93520000Y-95730000D03*
X90480000Y-95730000D03*
D16*
X90480000Y-88110000D03*
D15*
X93520000Y-88110000D03*
X90480000Y-90650000D03*
X93520000Y-90650000D03*
X90480000Y-93190000D03*
X93520000Y-93190000D03*
D17*
X46500000Y-78250000D03*
D18*
X46500000Y-84900000D03*
D19*
X41700000Y-81500000D03*
D20*
X53500000Y-79750000D03*
D21*
X56040000Y-79750000D03*
D15*
X77520000Y-105890000D03*
X74480000Y-105890000D03*
X74480000Y-103350000D03*
X77520000Y-103350000D03*
X77520000Y-100810000D03*
X74480000Y-100810000D03*
X74480000Y-98270000D03*
X77520000Y-98270000D03*
X77520000Y-95730000D03*
X74480000Y-95730000D03*
D16*
X74480000Y-88110000D03*
D15*
X77520000Y-88110000D03*
X74480000Y-90650000D03*
X77520000Y-90650000D03*
X74480000Y-93190000D03*
X77520000Y-93190000D03*
X208520000Y-105890000D03*
X205480000Y-105890000D03*
X205480000Y-103350000D03*
X208520000Y-103350000D03*
X208520000Y-100810000D03*
X205480000Y-100810000D03*
X205480000Y-98270000D03*
X208520000Y-98270000D03*
X208520000Y-95730000D03*
X205480000Y-95730000D03*
D16*
X205480000Y-88110000D03*
D15*
X208520000Y-88110000D03*
X205480000Y-90650000D03*
X208520000Y-90650000D03*
X205480000Y-93190000D03*
X208520000Y-93190000D03*
D22*
X224800000Y-101000000D03*
D23*
X221670000Y-97870000D03*
X221670000Y-104130000D03*
X227930000Y-104130000D03*
X227930000Y-97870000D03*
D22*
X224800000Y-88000000D03*
D23*
X221670000Y-84870000D03*
X221670000Y-91130000D03*
X227930000Y-91130000D03*
X227930000Y-84870000D03*
D24*
X62000000Y-78750000D03*
D25*
X64540000Y-78750000D03*
X67080000Y-78750000D03*
D24*
X58250000Y-97750000D03*
D25*
X60790000Y-97750000D03*
X63330000Y-97750000D03*
D26*
X59210000Y-111980000D03*
D27*
X61750000Y-111980000D03*
X64290000Y-112030000D03*
M02*
