G04 #@! TF.FileFunction,Soldermask,Top*
%FSLAX46Y46*%
G04 Gerber Fmt 4.6, Leading zero omitted, Abs format (unit mm)*
G04 Created by KiCad (PCBNEW 4.0.2-stable) date 2019-10-18 11:27:55 AM*
%MOMM*%
G01*
G04 APERTURE LIST*
%ADD10C,0.200000*%
%ADD11C,3.200000*%
%ADD12R,1.700000X1.100000*%
%ADD13R,1.100000X1.700000*%
%ADD14R,2.497760X2.497760*%
%ADD15R,1.700000X2.900000*%
%ADD16C,1.850000*%
%ADD17R,1.850000X1.850000*%
%ADD18O,2.100000X1.600000*%
%ADD19R,2.100000X1.600000*%
%ADD20R,1.300000X4.000000*%
%ADD21R,4.000000X1.300000*%
%ADD22R,2.100000X4.100000*%
%ADD23R,2.100000X5.100000*%
%ADD24R,4.100000X2.100000*%
%ADD25R,1.800000X2.600000*%
%ADD26O,1.800000X2.600000*%
%ADD27R,0.850000X0.900000*%
%ADD28R,1.350000X1.100000*%
%ADD29R,1.700000X1.700000*%
%ADD30C,1.700000*%
%ADD31C,1.624000*%
%ADD32C,1.878000*%
G04 APERTURE END LIST*
D10*
D11*
X132700000Y-112000000D03*
X132700000Y-80960000D03*
X232410000Y-80960000D03*
X232410000Y-112000000D03*
X43180000Y-80970000D03*
D12*
X50000000Y-103000000D03*
X50000000Y-106000000D03*
D13*
X55250000Y-105750000D03*
X52250000Y-105750000D03*
D12*
X56500000Y-93250000D03*
X56500000Y-90250000D03*
X63500000Y-93250000D03*
X63500000Y-90250000D03*
D13*
X66250000Y-103000000D03*
X69250000Y-103000000D03*
X69250000Y-83250000D03*
X66250000Y-83250000D03*
X61250000Y-113000000D03*
X64250000Y-113000000D03*
D12*
X69000000Y-96250000D03*
X69000000Y-93250000D03*
X66750000Y-92750000D03*
X66750000Y-89750000D03*
X66250000Y-108000000D03*
X66250000Y-111000000D03*
D14*
X53500000Y-88300360D03*
X53500000Y-92699640D03*
D15*
X71500000Y-114250000D03*
D16*
X58500000Y-100500000D03*
D17*
X58500000Y-97960000D03*
D16*
X58500000Y-103040000D03*
X63000000Y-83250000D03*
D17*
X63000000Y-85790000D03*
D16*
X63000000Y-80710000D03*
X53750000Y-113500000D03*
D17*
X51210000Y-113500000D03*
D16*
X56290000Y-113500000D03*
D18*
X192520000Y-105890000D03*
X189480000Y-105890000D03*
X189480000Y-103350000D03*
X192520000Y-103350000D03*
X192520000Y-100810000D03*
X189480000Y-100810000D03*
X189480000Y-98270000D03*
X192520000Y-98270000D03*
X192520000Y-95730000D03*
X189480000Y-95730000D03*
D19*
X189480000Y-88110000D03*
D18*
X192520000Y-88110000D03*
X189480000Y-90650000D03*
X192520000Y-90650000D03*
X189480000Y-93190000D03*
X192520000Y-93190000D03*
X176520000Y-105890000D03*
X173480000Y-105890000D03*
X173480000Y-103350000D03*
X176520000Y-103350000D03*
X176520000Y-100810000D03*
X173480000Y-100810000D03*
X173480000Y-98270000D03*
X176520000Y-98270000D03*
X176520000Y-95730000D03*
X173480000Y-95730000D03*
D19*
X173480000Y-88110000D03*
D18*
X176520000Y-88110000D03*
X173480000Y-90650000D03*
X176520000Y-90650000D03*
X173480000Y-93190000D03*
X176520000Y-93190000D03*
X159520000Y-105890000D03*
X156480000Y-105890000D03*
X156480000Y-103350000D03*
X159520000Y-103350000D03*
X159520000Y-100810000D03*
X156480000Y-100810000D03*
X156480000Y-98270000D03*
X159520000Y-98270000D03*
X159520000Y-95730000D03*
X156480000Y-95730000D03*
D19*
X156480000Y-88110000D03*
D18*
X159520000Y-88110000D03*
X156480000Y-90650000D03*
X159520000Y-90650000D03*
X156480000Y-93190000D03*
X159520000Y-93190000D03*
X142520000Y-105890000D03*
X139480000Y-105890000D03*
X139480000Y-103350000D03*
X142520000Y-103350000D03*
X142520000Y-100810000D03*
X139480000Y-100810000D03*
X139480000Y-98270000D03*
X142520000Y-98270000D03*
X142520000Y-95730000D03*
X139480000Y-95730000D03*
D19*
X139480000Y-88110000D03*
D18*
X142520000Y-88110000D03*
X139480000Y-90650000D03*
X142520000Y-90650000D03*
X139480000Y-93190000D03*
X142520000Y-93190000D03*
X125520000Y-105890000D03*
X122480000Y-105890000D03*
X122480000Y-103350000D03*
X125520000Y-103350000D03*
X125520000Y-100810000D03*
X122480000Y-100810000D03*
X122480000Y-98270000D03*
X125520000Y-98270000D03*
X125520000Y-95730000D03*
X122480000Y-95730000D03*
D19*
X122480000Y-88110000D03*
D18*
X125520000Y-88110000D03*
X122480000Y-90650000D03*
X125520000Y-90650000D03*
X122480000Y-93190000D03*
X125520000Y-93190000D03*
X109520000Y-105890000D03*
X106480000Y-105890000D03*
X106480000Y-103350000D03*
X109520000Y-103350000D03*
X109520000Y-100810000D03*
X106480000Y-100810000D03*
X106480000Y-98270000D03*
X109520000Y-98270000D03*
X109520000Y-95730000D03*
X106480000Y-95730000D03*
D19*
X106480000Y-88110000D03*
D18*
X109520000Y-88110000D03*
X106480000Y-90650000D03*
X109520000Y-90650000D03*
X106480000Y-93190000D03*
X109520000Y-93190000D03*
X93520000Y-105890000D03*
X90480000Y-105890000D03*
X90480000Y-103350000D03*
X93520000Y-103350000D03*
X93520000Y-100810000D03*
X90480000Y-100810000D03*
X90480000Y-98270000D03*
X93520000Y-98270000D03*
X93520000Y-95730000D03*
X90480000Y-95730000D03*
D19*
X90480000Y-88110000D03*
D18*
X93520000Y-88110000D03*
X90480000Y-90650000D03*
X93520000Y-90650000D03*
X90480000Y-93190000D03*
X93520000Y-93190000D03*
D20*
X52350000Y-97000000D03*
X55150000Y-97000000D03*
X52350000Y-102250000D03*
X55150000Y-102250000D03*
D21*
X60000000Y-93150000D03*
X60000000Y-90350000D03*
D22*
X43000000Y-89500000D03*
D23*
X49650000Y-89500000D03*
D24*
X46250000Y-94300000D03*
D25*
X50250000Y-79500000D03*
D26*
X52790000Y-79500000D03*
D21*
X67750000Y-100900000D03*
X67750000Y-98100000D03*
X67750000Y-85100000D03*
X67750000Y-87900000D03*
X62750000Y-110900000D03*
X62750000Y-108100000D03*
D18*
X77520000Y-105890000D03*
X74480000Y-105890000D03*
X74480000Y-103350000D03*
X77520000Y-103350000D03*
X77520000Y-100810000D03*
X74480000Y-100810000D03*
X74480000Y-98270000D03*
X77520000Y-98270000D03*
X77520000Y-95730000D03*
X74480000Y-95730000D03*
D19*
X74480000Y-88110000D03*
D18*
X77520000Y-88110000D03*
X74480000Y-90650000D03*
X77520000Y-90650000D03*
X74480000Y-93190000D03*
X77520000Y-93190000D03*
X208520000Y-105890000D03*
X205480000Y-105890000D03*
X205480000Y-103350000D03*
X208520000Y-103350000D03*
X208520000Y-100810000D03*
X205480000Y-100810000D03*
X205480000Y-98270000D03*
X208520000Y-98270000D03*
X208520000Y-95730000D03*
X205480000Y-95730000D03*
D19*
X205480000Y-88110000D03*
D18*
X208520000Y-88110000D03*
X205480000Y-90650000D03*
X208520000Y-90650000D03*
X205480000Y-93190000D03*
X208520000Y-93190000D03*
D27*
X114000000Y-88650000D03*
X114000000Y-90150000D03*
D28*
X115800000Y-90500000D03*
X115800000Y-88500000D03*
D12*
X117900000Y-91000000D03*
X117900000Y-88000000D03*
D27*
X180700000Y-88650000D03*
X180700000Y-90150000D03*
D28*
X182600000Y-90300000D03*
X182600000Y-88300000D03*
D12*
X184800000Y-90900000D03*
X184800000Y-87900000D03*
D27*
X114000000Y-96050000D03*
X114000000Y-97550000D03*
D28*
X115800000Y-97900000D03*
X115800000Y-95900000D03*
D12*
X117900000Y-98400000D03*
X117900000Y-95400000D03*
D27*
X180700000Y-96050000D03*
X180700000Y-97550000D03*
D28*
X182600000Y-97800000D03*
X182600000Y-95800000D03*
D12*
X184800000Y-98250000D03*
X184800000Y-95250000D03*
D29*
X43750000Y-99250000D03*
D30*
X43750000Y-102750000D03*
D31*
X224800000Y-101000000D03*
D32*
X221670000Y-97870000D03*
X221670000Y-104130000D03*
X227930000Y-104130000D03*
X227930000Y-97870000D03*
D31*
X224800000Y-88000000D03*
D32*
X221670000Y-84870000D03*
X221670000Y-91130000D03*
X227930000Y-91130000D03*
X227930000Y-84870000D03*
D11*
X43180000Y-112100000D03*
M02*
