M48
;DRILL file {KiCad 4.0.2-stable} date 2019-10-18 11:27:59 AM
;FORMAT={2:4/ absolute / inch / suppress leading zeros}
FMAT,2
INCH,TZ
T1C0.016
T2C0.020
T3C0.030
T4C0.031
T5C0.039
T6C0.040
T7C0.043
T8C0.047
T9C0.047
T10C0.050
T11C0.122
%
G90
G05
M72
T1
X26102Y-37953
X26496Y-37953
X27087Y-35354
X27441Y-35354
X27441Y-35354
X27756Y-38189
X27756Y-38543
X27756Y-38937
X27795Y-34606
X27795Y-34961
X27795Y-35354
X27933Y-37874
X28110Y-38189
X28110Y-38543
X28110Y-38937
X28189Y-34606
X28189Y-34961
X28189Y-35354
X28504Y-38189
X28504Y-38543
X28504Y-38937
T2
X19193Y-42323
X19193Y-42815
X19685Y-42323
X19685Y-42815
X20276Y-42323
X22244Y-33976
X22244Y-34449
X22244Y-34921
X25039Y-37283
X25039Y-37795
X25039Y-38307
X25866Y-44488
X26299Y-37283
X26339Y-41260
X26339Y-41732
X26378Y-44488
X26811Y-41260
X26811Y-41732
X26850Y-43701
X26850Y-44488
X26870Y-42520
X27165Y-37283
X27244Y-41260
X27244Y-41732
X27283Y-32126
X27362Y-42520
X27835Y-32126
X27835Y-32756
X27835Y-33425
X27854Y-42520
X28051Y-39665
X28051Y-40157
X28051Y-40650
X28051Y-41142
X28051Y-41634
X28051Y-42126
X28543Y-39665
T3
X20161Y-44685
X21161Y-44685
X22161Y-44685
X23031Y-38567
X23031Y-39567
X23031Y-40567
X24803Y-31776
X24803Y-32776
X24803Y-33776
T4
X17224Y-39075
X17224Y-40453
T5
X29421Y-34689
X29421Y-35689
X29421Y-36689
X29421Y-37689
X29421Y-38689
X29421Y-39689
X29421Y-40689
X29421Y-41689
X30421Y-34689
X30421Y-35689
X30421Y-36689
X30421Y-37689
X30421Y-38689
X30421Y-39689
X30421Y-40689
X30421Y-41689
X35720Y-34689
X35720Y-35689
X35720Y-36689
X35720Y-37689
X35720Y-38689
X35720Y-39689
X35720Y-40689
X35720Y-41689
X36720Y-34689
X36720Y-35689
X36720Y-36689
X36720Y-37689
X36720Y-38689
X36720Y-39689
X36720Y-40689
X36720Y-41689
X42020Y-34689
X42020Y-35689
X42020Y-36689
X42020Y-37689
X42020Y-38689
X42020Y-39689
X42020Y-40689
X42020Y-41689
X43020Y-34689
X43020Y-35689
X43020Y-36689
X43020Y-37689
X43020Y-38689
X43020Y-39689
X43020Y-40689
X43020Y-41689
X48319Y-34689
X48319Y-35689
X48319Y-36689
X48319Y-37689
X48319Y-38689
X48319Y-39689
X48319Y-40689
X48319Y-41689
X49319Y-34689
X49319Y-35689
X49319Y-36689
X49319Y-37689
X49319Y-38689
X49319Y-39689
X49319Y-40689
X49319Y-41689
X55012Y-34689
X55012Y-35689
X55012Y-36689
X55012Y-37689
X55012Y-38689
X55012Y-39689
X55012Y-40689
X55012Y-41689
X56012Y-34689
X56012Y-35689
X56012Y-36689
X56012Y-37689
X56012Y-38689
X56012Y-39689
X56012Y-40689
X56012Y-41689
X61705Y-34689
X61705Y-35689
X61705Y-36689
X61705Y-37689
X61705Y-38689
X61705Y-39689
X61705Y-40689
X61705Y-41689
X62705Y-34689
X62705Y-35689
X62705Y-36689
X62705Y-37689
X62705Y-38689
X62705Y-39689
X62705Y-40689
X62705Y-41689
X68398Y-34689
X68398Y-35689
X68398Y-36689
X68398Y-37689
X68398Y-38689
X68398Y-39689
X68398Y-40689
X68398Y-41689
X69398Y-34689
X69398Y-35689
X69398Y-36689
X69398Y-37689
X69398Y-38689
X69398Y-39689
X69398Y-40689
X69398Y-41689
X74697Y-34689
X74697Y-35689
X74697Y-36689
X74697Y-37689
X74697Y-38689
X74697Y-39689
X74697Y-40689
X74697Y-41689
X75697Y-34689
X75697Y-35689
X75697Y-36689
X75697Y-37689
X75697Y-38689
X75697Y-39689
X75697Y-40689
X75697Y-41689
X80996Y-34689
X80996Y-35689
X80996Y-36689
X80996Y-37689
X80996Y-38689
X80996Y-39689
X80996Y-40689
X80996Y-41689
X81996Y-34689
X81996Y-35689
X81996Y-36689
X81996Y-37689
X81996Y-38689
X81996Y-39689
X81996Y-40689
X81996Y-41689
T6
X88504Y-34646
X88504Y-39764
T8
X28150Y-44980
T9
X19783Y-31299
X20783Y-31299
T10
X87272Y-33413
X87272Y-35878
X87272Y-38531
X87272Y-40996
X89736Y-33413
X89736Y-35878
X89736Y-38531
X89736Y-40996
T11
X17000Y-31878
X17000Y-44134
X52244Y-31874
X52244Y-44094
X91500Y-31874
X91500Y-44094
T4
X16929Y-34783G85X16929Y-35689
G05
X18661Y-37126G85X17756Y-37126
G05
T7
X19547Y-34744G85X19547Y-35728
G05
T0
M30
