G04 #@! TF.FileFunction,Soldermask,Bot*
%FSLAX46Y46*%
G04 Gerber Fmt 4.6, Leading zero omitted, Abs format (unit mm)*
G04 Created by KiCad (PCBNEW 4.0.2-stable) date 2019-10-18 11:27:55 AM*
%MOMM*%
G01*
G04 APERTURE LIST*
%ADD10C,0.200000*%
%ADD11C,3.200000*%
%ADD12R,1.700000X2.900000*%
%ADD13C,1.850000*%
%ADD14R,1.850000X1.850000*%
%ADD15O,2.100000X1.600000*%
%ADD16R,2.100000X1.600000*%
%ADD17R,2.100000X4.100000*%
%ADD18R,2.100000X5.100000*%
%ADD19R,4.100000X2.100000*%
%ADD20R,1.800000X2.600000*%
%ADD21O,1.800000X2.600000*%
%ADD22R,1.700000X1.700000*%
%ADD23C,1.700000*%
%ADD24C,1.624000*%
%ADD25C,1.878000*%
G04 APERTURE END LIST*
D10*
D11*
X132700000Y-112000000D03*
X132700000Y-80960000D03*
X232410000Y-80960000D03*
X232410000Y-112000000D03*
X43180000Y-80970000D03*
D12*
X71500000Y-114250000D03*
D13*
X58500000Y-100500000D03*
D14*
X58500000Y-97960000D03*
D13*
X58500000Y-103040000D03*
X63000000Y-83250000D03*
D14*
X63000000Y-85790000D03*
D13*
X63000000Y-80710000D03*
X53750000Y-113500000D03*
D14*
X51210000Y-113500000D03*
D13*
X56290000Y-113500000D03*
D15*
X192520000Y-105890000D03*
X189480000Y-105890000D03*
X189480000Y-103350000D03*
X192520000Y-103350000D03*
X192520000Y-100810000D03*
X189480000Y-100810000D03*
X189480000Y-98270000D03*
X192520000Y-98270000D03*
X192520000Y-95730000D03*
X189480000Y-95730000D03*
D16*
X189480000Y-88110000D03*
D15*
X192520000Y-88110000D03*
X189480000Y-90650000D03*
X192520000Y-90650000D03*
X189480000Y-93190000D03*
X192520000Y-93190000D03*
X176520000Y-105890000D03*
X173480000Y-105890000D03*
X173480000Y-103350000D03*
X176520000Y-103350000D03*
X176520000Y-100810000D03*
X173480000Y-100810000D03*
X173480000Y-98270000D03*
X176520000Y-98270000D03*
X176520000Y-95730000D03*
X173480000Y-95730000D03*
D16*
X173480000Y-88110000D03*
D15*
X176520000Y-88110000D03*
X173480000Y-90650000D03*
X176520000Y-90650000D03*
X173480000Y-93190000D03*
X176520000Y-93190000D03*
X159520000Y-105890000D03*
X156480000Y-105890000D03*
X156480000Y-103350000D03*
X159520000Y-103350000D03*
X159520000Y-100810000D03*
X156480000Y-100810000D03*
X156480000Y-98270000D03*
X159520000Y-98270000D03*
X159520000Y-95730000D03*
X156480000Y-95730000D03*
D16*
X156480000Y-88110000D03*
D15*
X159520000Y-88110000D03*
X156480000Y-90650000D03*
X159520000Y-90650000D03*
X156480000Y-93190000D03*
X159520000Y-93190000D03*
X142520000Y-105890000D03*
X139480000Y-105890000D03*
X139480000Y-103350000D03*
X142520000Y-103350000D03*
X142520000Y-100810000D03*
X139480000Y-100810000D03*
X139480000Y-98270000D03*
X142520000Y-98270000D03*
X142520000Y-95730000D03*
X139480000Y-95730000D03*
D16*
X139480000Y-88110000D03*
D15*
X142520000Y-88110000D03*
X139480000Y-90650000D03*
X142520000Y-90650000D03*
X139480000Y-93190000D03*
X142520000Y-93190000D03*
X125520000Y-105890000D03*
X122480000Y-105890000D03*
X122480000Y-103350000D03*
X125520000Y-103350000D03*
X125520000Y-100810000D03*
X122480000Y-100810000D03*
X122480000Y-98270000D03*
X125520000Y-98270000D03*
X125520000Y-95730000D03*
X122480000Y-95730000D03*
D16*
X122480000Y-88110000D03*
D15*
X125520000Y-88110000D03*
X122480000Y-90650000D03*
X125520000Y-90650000D03*
X122480000Y-93190000D03*
X125520000Y-93190000D03*
X109520000Y-105890000D03*
X106480000Y-105890000D03*
X106480000Y-103350000D03*
X109520000Y-103350000D03*
X109520000Y-100810000D03*
X106480000Y-100810000D03*
X106480000Y-98270000D03*
X109520000Y-98270000D03*
X109520000Y-95730000D03*
X106480000Y-95730000D03*
D16*
X106480000Y-88110000D03*
D15*
X109520000Y-88110000D03*
X106480000Y-90650000D03*
X109520000Y-90650000D03*
X106480000Y-93190000D03*
X109520000Y-93190000D03*
X93520000Y-105890000D03*
X90480000Y-105890000D03*
X90480000Y-103350000D03*
X93520000Y-103350000D03*
X93520000Y-100810000D03*
X90480000Y-100810000D03*
X90480000Y-98270000D03*
X93520000Y-98270000D03*
X93520000Y-95730000D03*
X90480000Y-95730000D03*
D16*
X90480000Y-88110000D03*
D15*
X93520000Y-88110000D03*
X90480000Y-90650000D03*
X93520000Y-90650000D03*
X90480000Y-93190000D03*
X93520000Y-93190000D03*
D17*
X43000000Y-89500000D03*
D18*
X49650000Y-89500000D03*
D19*
X46250000Y-94300000D03*
D20*
X50250000Y-79500000D03*
D21*
X52790000Y-79500000D03*
D15*
X77520000Y-105890000D03*
X74480000Y-105890000D03*
X74480000Y-103350000D03*
X77520000Y-103350000D03*
X77520000Y-100810000D03*
X74480000Y-100810000D03*
X74480000Y-98270000D03*
X77520000Y-98270000D03*
X77520000Y-95730000D03*
X74480000Y-95730000D03*
D16*
X74480000Y-88110000D03*
D15*
X77520000Y-88110000D03*
X74480000Y-90650000D03*
X77520000Y-90650000D03*
X74480000Y-93190000D03*
X77520000Y-93190000D03*
X208520000Y-105890000D03*
X205480000Y-105890000D03*
X205480000Y-103350000D03*
X208520000Y-103350000D03*
X208520000Y-100810000D03*
X205480000Y-100810000D03*
X205480000Y-98270000D03*
X208520000Y-98270000D03*
X208520000Y-95730000D03*
X205480000Y-95730000D03*
D16*
X205480000Y-88110000D03*
D15*
X208520000Y-88110000D03*
X205480000Y-90650000D03*
X208520000Y-90650000D03*
X205480000Y-93190000D03*
X208520000Y-93190000D03*
D22*
X43750000Y-99250000D03*
D23*
X43750000Y-102750000D03*
D24*
X224800000Y-101000000D03*
D25*
X221670000Y-97870000D03*
X221670000Y-104130000D03*
X227930000Y-104130000D03*
X227930000Y-97870000D03*
D24*
X224800000Y-88000000D03*
D25*
X221670000Y-84870000D03*
X221670000Y-91130000D03*
X227930000Y-91130000D03*
X227930000Y-84870000D03*
D11*
X43180000Y-112100000D03*
M02*
